# xmcd CD database file
#
# Track frame offsets:
#	150
#	18936
#	44210
#	64489
#	89917
#	100570
#	123618
#	147404
#	173299
#	198813
#	227118
#
# Disc length: 3217 seconds
#
# Revision: 0
# Processed by: cddbd v1.5.1PL0 Copyright (c) Steve Scherf et al.
# Submitted via: CDex 1.51
#
DISCID=9a0c8f0b
DTITLE=平井　堅 - KEN　HIRAI　Best2
DYEAR=1900
DGENRE=Pop
TTITLE0=LOVIN'YOU
TTITLE1=楽園
TTITLE2=LIFE IS・・・
TTITLE3=思いがかさなるその前に・・・
TTITLE4=WHAT WONDERFUL WORLD
TTITLE5=センチメンタル
TTITLE6=Ring
TTITLE7=瞳を閉じて
TTITLE8=even if
TTITLE9=Gaining Through Losing
TTITLE10=Don't Know Why
EXTD=
EXTT0=
EXTT1=
EXTT2=
EXTT3=
EXTT4=
EXTT5=
EXTT6=
EXTT7=
EXTT8=
EXTT9=
EXTT10=
PLAYORDER=
